<svg width="16" height="16" viewBox="0 0 16 16" fill="none" xmlns="http://www.w3.org/2000/svg">
<path d="M15.7773 5.084L8.27727 0.084C8.10927 -0.028 7.8906 -0.028 7.7226 0.084L0.222599 5.084C0.0392656 5.206 -0.0420677 5.434 0.0212656 5.64467C0.084599 5.85533 0.279266 6 0.499932 6H1.33327V15.3333C1.33327 15.7013 1.63193 16 1.99993 16H2.6666V8.5C2.6666 8.22467 2.89193 8 3.1666 8H12.8333C13.1086 8 13.3333 8.22467 13.3333 8.5V16H13.9999C14.3679 16 14.6666 15.7013 14.6666 15.3333V6H15.4999C15.7206 6 15.9146 5.856 15.9786 5.64467C16.0426 5.43333 15.9606 5.206 15.7773 5.084Z" fill="#262728"/>
<path d="M6.1666 12.6667V13.1667C6.1666 13.4427 5.9426 13.6667 5.6666 13.6667C5.3906 13.6667 5.1666 13.4427 5.1666 13.1667V12.6667H3.99993C3.81593 12.6667 3.6666 12.816 3.6666 13V15.6667C3.6666 15.8507 3.81593 16 3.99993 16H7.33327C7.51727 16 7.6666 15.8507 7.6666 15.6667V13C7.6666 12.816 7.51727 12.6667 7.33327 12.6667H6.1666Z" fill="#262728"/>
<path d="M10.8333 12.6667V13.1667C10.8333 13.4427 10.6093 13.6667 10.3333 13.6667C10.0573 13.6667 9.83327 13.4427 9.83327 13.1667V12.6667H8.6666C8.4826 12.6667 8.33327 12.816 8.33327 13V15.6667C8.33327 15.8507 8.4826 16 8.6666 16H11.9999C12.1839 16 12.3333 15.8507 12.3333 15.6667V13C12.3333 12.816 12.1839 12.6667 11.9999 12.6667H10.8333Z" fill="#262728"/>
<path d="M8.49993 8.66667V9.16667C8.49993 9.44267 8.27593 9.66667 7.99993 9.66667C7.72393 9.66667 7.49993 9.44267 7.49993 9.16667V8.66667H6.33327C6.14927 8.66667 5.99993 8.816 5.99993 9V11.6667C5.99993 11.8507 6.14927 12 6.33327 12H9.6666C9.8506 12 9.99993 11.8507 9.99993 11.6667V9C9.99993 8.816 9.8506 8.66667 9.6666 8.66667H8.49993Z" fill="#262728"/>
</svg>
