<svg width="19" height="16" viewBox="0 0 19 16" fill="none" xmlns="http://www.w3.org/2000/svg">
<path d="M10.7586 6.95516C11.6512 7.84779 11.6512 9.29501 10.7586 10.1876C9.86593 11.0803 8.41871 11.0803 7.52608 10.1876C6.63345 9.29501 6.63345 7.84779 7.52608 6.95516C8.41871 6.06254 9.86593 6.06254 10.7586 6.95516Z" fill="#A8A9AA"/>
<path d="M15.9994 2.28572H14.4202L13.2768 0H5.00725L3.86494 2.28684L2.28793 2.28965C1.03069 2.2919 0.00722488 3.31644 0.00613928 4.57425L0 13.7137C0 14.9743 1.02511 16 2.28572 16H15.9994C17.26 16 18.2852 14.9749 18.2852 13.7143V4.5714C18.2851 3.31083 17.26 2.28572 15.9994 2.28572ZM9.14228 13.1428C6.62162 13.1428 4.57084 11.0921 4.57084 8.5714C4.57084 6.05074 6.62162 3.99996 9.14228 3.99996C11.6629 3.99996 13.7137 6.05074 13.7137 8.5714C13.7137 11.0921 11.6629 13.1428 9.14228 13.1428Z" fill="#A8A9AA"/>
</svg>
