<svg width="21" height="12" viewBox="0 0 21 12" fill="none" xmlns="http://www.w3.org/2000/svg">
<path d="M11.558 0H2.25607C1.01065 0.00141004 0.00141004 1.01065 0 2.25607V9.74393C0.00141004 10.9894 1.01065 11.9986 2.25607 12H11.558C12.8034 11.9986 13.8126 10.9894 13.814 9.74393V2.25607C13.8126 1.01065 12.8034 0.00141004 11.558 0Z" fill="#A8A9AA"/>
<path d="M20.6185 1.17474C20.4779 1.09454 20.3049 1.09578 20.1654 1.17809L15.1766 4.12367C15.0391 4.20492 14.9549 4.35263 14.9549 4.51231V7.23335C14.9549 7.37276 15.0192 7.50443 15.1294 7.58991L20.1181 11.4629C20.2542 11.5685 20.4385 11.5876 20.5933 11.5118C20.7481 11.436 20.8461 11.2788 20.8461 11.1064V1.56656C20.8461 1.40458 20.7592 1.25511 20.6185 1.17474Z" fill="#A8A9AA"/>
</svg>
