<svg width="12" height="8" viewBox="0 0 12 8" fill="none" xmlns="http://www.w3.org/2000/svg">
<path d="M6.00387 4.46242L2.25819 0.716899C2.06807 0.526586 1.83553 0.431646 1.56062 0.431646C1.28573 0.431646 1.05331 0.526614 0.863211 0.716899L0.285091 1.29483C0.0950482 1.48485 -2.74621e-07 1.71741 -2.62609e-07 1.99221C-2.50597e-07 2.26702 0.0950482 2.49947 0.285091 2.68978L5.30244 7.71477C5.49257 7.90492 5.72507 8 6.00001 8C6.27496 8 6.50727 7.90495 6.69748 7.71477L11.7148 2.68981C11.905 2.4995 12 2.26707 12 1.99224C12 1.71741 11.905 1.48487 11.7148 1.29486L11.1368 0.716926C10.9468 0.526613 10.7156 0.431673 10.4431 0.431673C10.1709 0.431673 9.93709 0.52664 9.74186 0.716926L6.00387 4.46242Z" fill="#262728"/>
</svg>
