<svg width="46" height="46" viewBox="0 0 46 46" fill="none" xmlns="http://www.w3.org/2000/svg">
<path d="M22.8657 22.3483L12.9675 32.2462C12.465 32.7491 11.8506 33 11.1241 33C10.3977 33 9.78345 32.749 9.2811 32.2462L7.75338 30.719C7.25117 30.2168 7 29.6023 7 28.8761C7 28.1499 7.25117 27.5356 7.75338 27.0327L21.0121 13.7537C21.5146 13.2512 22.129 13 22.8555 13C23.5821 13 24.196 13.2512 24.6986 13.7537L37.9574 27.0326C38.4598 27.5355 38.711 28.1497 38.711 28.876C38.711 29.6023 38.4598 30.2168 37.9574 30.7189L36.43 32.2461C35.9278 32.749 35.3168 32.9999 34.5968 32.9999C33.8774 32.9999 33.2596 32.749 32.7437 32.2461L22.8657 22.3483Z" fill="#F7992B"/>
</svg>
