<svg width="15" height="16" viewBox="0 0 15 16" fill="none" xmlns="http://www.w3.org/2000/svg">
<path d="M2.02139 4.5C2.02139 2.754 3.45725 1.33333 5.22192 1.33333H11.3757C11.154 0.566 10.4472 0 9.6016 0H1.85294C0.830791 0 0 0.822 0 1.83333V12.1667C0 13.178 0.830791 14 1.85294 14H2.02139V4.5Z" fill="#294594"/>
<path d="M12.9706 2.66667H5.22192C4.19978 2.66667 3.36898 3.48867 3.36898 4.5V14.1667C3.36898 15.178 4.19978 16 5.22192 16H12.9706C13.9927 16 14.8235 15.178 14.8235 14.1667V4.5C14.8235 3.48867 13.9927 2.66667 12.9706 2.66667ZM11.623 14H6.56952C6.29057 14 6.06417 13.776 6.06417 13.5C6.06417 13.224 6.29057 13 6.56952 13H11.623C11.9019 13 12.1283 13.224 12.1283 13.5C12.1283 13.776 11.9019 14 11.623 14ZM11.623 11.3333H6.56952C6.29057 11.3333 6.06417 11.1093 6.06417 10.8333C6.06417 10.5573 6.29057 10.3333 6.56952 10.3333H11.623C11.9019 10.3333 12.1283 10.5573 12.1283 10.8333C12.1283 11.1093 11.9019 11.3333 11.623 11.3333ZM11.623 9H6.56952C6.29057 9 6.06417 8.776 6.06417 8.5C6.06417 8.224 6.29057 8 6.56952 8H11.623C11.9019 8 12.1283 8.224 12.1283 8.5C12.1283 8.776 11.9019 9 11.623 9ZM11.623 6.33333H6.56952C6.29057 6.33333 6.06417 6.10933 6.06417 5.83333C6.06417 5.55733 6.29057 5.33333 6.56952 5.33333H11.623C11.9019 5.33333 12.1283 5.55733 12.1283 5.83333C12.1283 6.10933 11.9019 6.33333 11.623 6.33333Z" fill="#294594"/>
</svg>
