<svg width="60" height="60" viewBox="0 0 60 60" fill="none" xmlns="http://www.w3.org/2000/svg">
<circle cx="30" cy="30" r="30" fill="white"/>
<path d="M39.016 20.2834H37.2547C36.768 20.2834 36.374 20.6773 36.374 21.1641C36.374 21.6508 36.7679 22.0447 37.2547 22.0447H39.016C39.5027 22.0447 39.8966 21.6508 39.8966 21.1641C39.8966 20.6773 39.5027 20.2834 39.016 20.2834Z" fill="#F7992B"/>
<path d="M30.1168 17.2476L29.2362 15.4863C29.0169 15.0512 28.4897 14.8766 28.0545 15.0925C27.6193 15.31 27.443 15.8389 27.6606 16.2741L28.5413 18.0354C28.7586 18.4688 29.2849 18.6469 29.723 18.4293C30.158 18.2117 30.3343 17.6828 30.1168 17.2476Z" fill="#F7992B"/>
<path d="M35.8873 15.0925C35.4538 14.8766 34.9233 15.0512 34.7056 15.4863L33.825 17.2476C33.6074 17.6828 33.7837 18.2116 34.2189 18.4293C34.6582 18.6475 35.1839 18.4673 35.4005 18.0354L36.2812 16.2741C36.4987 15.8389 36.3224 15.31 35.8873 15.0925Z" fill="#F7992B"/>
<path d="M26.6871 20.2834H24.9258C24.439 20.2834 24.0451 20.6773 24.0451 21.1641C24.0451 21.6508 24.439 22.0447 24.9258 22.0447H26.6871C27.1738 22.0447 27.5677 21.6508 27.5677 21.1641C27.5677 20.6773 27.1738 20.2834 26.6871 20.2834Z" fill="#F7992B"/>
<path d="M21.4033 29.1485H17.8807C17.3943 29.1485 17 29.5428 17 30.0292V44.1193C17 44.6056 17.3943 44.9999 17.8807 44.9999H21.4032C21.8895 44.9999 22.2839 44.6057 22.2839 44.1193V30.0291C22.2839 29.5428 21.8896 29.1485 21.4033 29.1485Z" fill="#F7992B"/>
<path d="M43.4016 31.4829C43.2463 30.1167 41.9702 29.1485 40.5953 29.1485H33.7296C34.3131 28.1037 34.6263 25.1487 34.6124 23.9415C34.5893 21.9433 32.9346 20.3421 30.9364 20.3421H30.2097C29.723 20.3421 29.329 20.736 29.329 21.2228C29.329 23.2592 28.5361 26.9349 27.0406 28.4304C26.034 29.437 25.1735 29.8017 24.0452 30.3657V43.5796C25.7727 44.1554 27.9661 45 31.3093 45H37.07C38.9681 45 40.4464 43.242 39.7109 41.3846C40.8315 41.0793 41.6579 40.0516 41.6579 38.8355C41.6579 38.4924 41.5917 38.1639 41.4722 37.862C43.3606 37.3475 44.0557 35.0158 42.745 33.5517C43.2265 33.0137 43.4921 32.2779 43.4016 31.4829Z" fill="#F7992B"/>
</svg>
