<svg width="140" height="20" viewBox="0 0 140 20" fill="none" xmlns="http://www.w3.org/2000/svg">
<rect width="20" height="20" rx="5" fill="#FFC107"/>
<rect x="30" width="20" height="20" rx="5" fill="#FFC107"/>
<rect x="60" width="20" height="20" rx="5" fill="#FFC107"/>
<rect x="90" width="20" height="20" rx="5" fill="#FFC107"/>
<rect x="120" width="20" height="20" rx="5" fill="#FFC107"/>
<path d="M16.4892 8.53466C16.4073 8.2811 16.1824 8.10101 15.9163 8.07703L12.3022 7.74887L10.873 4.40383C10.7676 4.15869 10.5276 4 10.261 4C9.99436 4 9.75437 4.15869 9.649 4.40441L8.21986 7.74887L4.60513 8.07703C4.33954 8.10159 4.11522 8.2811 4.03277 8.53466C3.95032 8.78821 4.02646 9.06632 4.22738 9.24163L6.95925 11.6375L6.15369 15.186C6.09474 15.4469 6.19601 15.7166 6.41249 15.8731C6.52886 15.9572 6.665 16 6.80229 16C6.92066 16 7.03807 15.9681 7.14345 15.905L10.261 14.0418L13.3774 15.905C13.6055 16.0422 13.8929 16.0297 14.1089 15.8731C14.3255 15.7162 14.4267 15.4464 14.3678 15.186L13.5622 11.6375L16.2941 9.24211C16.495 9.06632 16.5717 8.78869 16.4892 8.53466Z" fill="white"/>
<path d="M46.4892 8.53466C46.4073 8.2811 46.1824 8.10101 45.9163 8.07703L42.3022 7.74887L40.873 4.40383C40.7676 4.15869 40.5276 4 40.261 4C39.9944 4 39.7544 4.15869 39.649 4.40441L38.2199 7.74887L34.6051 8.07703C34.3395 8.10159 34.1152 8.2811 34.0328 8.53466C33.9503 8.78821 34.0265 9.06632 34.2274 9.24163L36.9593 11.6375L36.1537 15.186C36.0947 15.4469 36.196 15.7166 36.4125 15.8731C36.5289 15.9572 36.665 16 36.8023 16C36.9207 16 37.0381 15.9681 37.1434 15.905L40.261 14.0418L43.3774 15.905C43.6055 16.0422 43.8929 16.0297 44.1089 15.8731C44.3255 15.7162 44.4267 15.4464 44.3678 15.186L43.5622 11.6375L46.2941 9.24211C46.495 9.06632 46.5717 8.78869 46.4892 8.53466Z" fill="white"/>
<path d="M76.4892 8.53466C76.4073 8.2811 76.1824 8.10101 75.9163 8.07703L72.3022 7.74887L70.873 4.40383C70.7676 4.15869 70.5276 4 70.261 4C69.9944 4 69.7544 4.15869 69.649 4.40441L68.2199 7.74887L64.6051 8.07703C64.3395 8.10159 64.1152 8.2811 64.0328 8.53466C63.9503 8.78821 64.0265 9.06632 64.2274 9.24163L66.9593 11.6375L66.1537 15.186C66.0947 15.4469 66.196 15.7166 66.4125 15.8731C66.5289 15.9572 66.665 16 66.8023 16C66.9207 16 67.0381 15.9681 67.1434 15.905L70.261 14.0418L73.3774 15.905C73.6055 16.0422 73.8929 16.0297 74.1089 15.8731C74.3255 15.7162 74.4267 15.4464 74.3678 15.186L73.5622 11.6375L76.2941 9.24211C76.495 9.06632 76.5717 8.78869 76.4892 8.53466Z" fill="white"/>
<path d="M106.489 8.53466C106.407 8.2811 106.182 8.10101 105.916 8.07703L102.302 7.74887L100.873 4.40383C100.768 4.15869 100.528 4 100.261 4C99.9944 4 99.7544 4.15869 99.649 4.40441L98.2199 7.74887L94.6051 8.07703C94.3395 8.10159 94.1152 8.2811 94.0328 8.53466C93.9503 8.78821 94.0265 9.06632 94.2274 9.24163L96.9593 11.6375L96.1537 15.186C96.0947 15.4469 96.196 15.7166 96.4125 15.8731C96.5289 15.9572 96.665 16 96.8023 16C96.9207 16 97.0381 15.9681 97.1434 15.905L100.261 14.0418L103.377 15.905C103.605 16.0422 103.893 16.0297 104.109 15.8731C104.326 15.7162 104.427 15.4464 104.368 15.186L103.562 11.6375L106.294 9.24211C106.495 9.06632 106.572 8.78869 106.489 8.53466Z" fill="white"/>
<path d="M136.489 8.53466C136.407 8.2811 136.182 8.10101 135.916 8.07703L132.302 7.74887L130.873 4.40383C130.768 4.15869 130.528 4 130.261 4C129.994 4 129.754 4.15869 129.649 4.40441L128.22 7.74887L124.605 8.07703C124.34 8.10159 124.115 8.2811 124.033 8.53466C123.95 8.78821 124.026 9.06632 124.227 9.24163L126.959 11.6375L126.154 15.186C126.095 15.4469 126.196 15.7166 126.412 15.8731C126.529 15.9572 126.665 16 126.802 16C126.921 16 127.038 15.9681 127.143 15.905L130.261 14.0418L133.377 15.905C133.605 16.0422 133.893 16.0297 134.109 15.8731C134.326 15.7162 134.427 15.4464 134.368 15.186L133.562 11.6375L136.294 9.24211C136.495 9.06632 136.572 8.78869 136.489 8.53466Z" fill="white"/>
</svg>
