<svg width="24" height="24" viewBox="0 0 24 24" fill="none" xmlns="http://www.w3.org/2000/svg">
<path d="M19.7773 9.084L12.2773 4.084C12.1093 3.972 11.8906 3.972 11.7226 4.084L4.2226 9.084C4.03927 9.206 3.95793 9.434 4.02127 9.64467C4.0846 9.85533 4.27927 10 4.49993 10H5.33327V19.3333C5.33327 19.7013 5.63193 20 5.99993 20H6.6666V12.5C6.6666 12.2247 6.89193 12 7.1666 12H16.8333C17.1086 12 17.3333 12.2247 17.3333 12.5V20H17.9999C18.3679 20 18.6666 19.7013 18.6666 19.3333V10H19.4999C19.7206 10 19.9146 9.856 19.9786 9.64467C20.0426 9.43333 19.9606 9.206 19.7773 9.084Z" fill="#A8A9AA"/>
<path d="M10.1666 16.6667V17.1667C10.1666 17.4427 9.9426 17.6667 9.6666 17.6667C9.3906 17.6667 9.1666 17.4427 9.1666 17.1667V16.6667H7.99993C7.81593 16.6667 7.6666 16.816 7.6666 17V19.6667C7.6666 19.8507 7.81593 20 7.99993 20H11.3333C11.5173 20 11.6666 19.8507 11.6666 19.6667V17C11.6666 16.816 11.5173 16.6667 11.3333 16.6667H10.1666Z" fill="#A8A9AA"/>
<path d="M14.8333 16.6667V17.1667C14.8333 17.4427 14.6093 17.6667 14.3333 17.6667C14.0573 17.6667 13.8333 17.4427 13.8333 17.1667V16.6667H12.6666C12.4826 16.6667 12.3333 16.816 12.3333 17V19.6667C12.3333 19.8507 12.4826 20 12.6666 20H15.9999C16.1839 20 16.3333 19.8507 16.3333 19.6667V17C16.3333 16.816 16.1839 16.6667 15.9999 16.6667H14.8333Z" fill="#A8A9AA"/>
<path d="M12.4999 12.6667V13.1667C12.4999 13.4427 12.2759 13.6667 11.9999 13.6667C11.7239 13.6667 11.4999 13.4427 11.4999 13.1667V12.6667H10.3333C10.1493 12.6667 9.99993 12.816 9.99993 13V15.6667C9.99993 15.8507 10.1493 16 10.3333 16H13.6666C13.8506 16 13.9999 15.8507 13.9999 15.6667V13C13.9999 12.816 13.8506 12.6667 13.6666 12.6667H12.4999Z" fill="#A8A9AA"/>
</svg>
