<svg width="24" height="24" viewBox="0 0 24 24" fill="none" xmlns="http://www.w3.org/2000/svg">
<path d="M13.5908 10.8467C14.4695 11.7254 14.4695 13.1501 13.5908 14.0288C12.7121 14.9075 11.2874 14.9075 10.4087 14.0288C9.53 13.1501 9.53 11.7254 10.4087 10.8467C11.2874 9.96799 12.7121 9.96799 13.5908 10.8467Z" fill="#262728"/>
<path d="M18.7499 6.25007H17.1953L16.0697 4H7.92916L6.80466 6.25118L5.25225 6.25394C4.01461 6.25615 3.00711 7.26472 3.00604 8.50291L3 17.4999C3 18.7408 4.00912 19.7505 5.25007 19.7505H18.7499C19.9909 19.7505 21 18.7414 21 17.5004V8.50011C21 7.2592 19.9908 6.25007 18.7499 6.25007ZM11.9997 16.9379C9.51836 16.9379 7.49956 14.9191 7.49956 12.4377C7.49956 9.95638 9.51836 7.93758 11.9997 7.93758C14.4811 7.93758 16.4999 9.95638 16.4999 12.4377C16.4999 14.9191 14.4811 16.9379 11.9997 16.9379Z" fill="#262728"/>
</svg>
