<svg width="24" height="24" viewBox="0 0 24 24" fill="none" xmlns="http://www.w3.org/2000/svg">
<path d="M13.0889 6H4.16451C2.96963 6.00135 2.00135 6.96963 2 8.16451V15.3485C2.00135 16.5433 2.96963 17.5116 4.16451 17.513H13.0889C14.2837 17.5116 15.252 16.5433 15.2534 15.3485V8.16451C15.252 6.96963 14.2837 6.00135 13.0889 6Z" fill="#262728"/>
<path d="M21.7817 7.12706C21.6467 7.05012 21.4809 7.0513 21.3469 7.13028L16.5607 9.95631C16.4288 10.0343 16.3479 10.176 16.3479 10.3292V12.9398C16.3479 13.0735 16.4097 13.1999 16.5153 13.2819L21.3016 16.9977C21.4322 17.099 21.609 17.1173 21.7575 17.0446C21.906 16.9718 22 16.821 22 16.6556V7.50298C22 7.34757 21.9166 7.20417 21.7817 7.12706Z" fill="#262728"/>
</svg>
