<svg width="85" height="12" viewBox="0 0 85 12" fill="none" xmlns="http://www.w3.org/2000/svg">
<path d="M12.4892 4.53466C12.4073 4.2811 12.1824 4.10101 11.9163 4.07703L8.30215 3.74887L6.87301 0.403834C6.76764 0.158687 6.52765 0 6.26101 0C5.99436 0 5.75437 0.158687 5.649 0.404407L4.21986 3.74887L0.605129 4.07703C0.339536 4.10159 0.115216 4.2811 0.0327676 4.53466C-0.0496807 4.78821 0.0264621 5.06632 0.227376 5.24163L2.95925 7.6375L2.15369 11.186C2.09474 11.4469 2.19601 11.7166 2.41249 11.8731C2.52886 11.9572 2.665 12 2.80229 12C2.92066 12 3.03807 11.9681 3.14345 11.905L6.26101 10.0418L9.37742 11.905C9.60546 12.0422 9.89293 12.0297 10.1089 11.8731C10.3255 11.7162 10.4267 11.4464 10.3678 11.186L9.56219 7.6375L12.2941 5.24211C12.495 5.06632 12.5717 4.78869 12.4892 4.53466Z" fill="#FFC107"/>
<path d="M30.4892 4.53466C30.4073 4.2811 30.1824 4.10101 29.9163 4.07703L26.3022 3.74887L24.873 0.403834C24.7676 0.158687 24.5276 0 24.261 0C23.9944 0 23.7544 0.158687 23.649 0.404407L22.2199 3.74887L18.6051 4.07703C18.3395 4.10159 18.1152 4.2811 18.0328 4.53466C17.9503 4.78821 18.0265 5.06632 18.2274 5.24163L20.9593 7.6375L20.1537 11.186C20.0947 11.4469 20.196 11.7166 20.4125 11.8731C20.5289 11.9572 20.665 12 20.8023 12C20.9207 12 21.0381 11.9681 21.1434 11.905L24.261 10.0418L27.3774 11.905C27.6055 12.0422 27.8929 12.0297 28.1089 11.8731C28.3255 11.7162 28.4267 11.4464 28.3678 11.186L27.5622 7.6375L30.2941 5.24211C30.495 5.06632 30.5717 4.78869 30.4892 4.53466Z" fill="#FFC107"/>
<path d="M48.4892 4.53466C48.4073 4.2811 48.1824 4.10101 47.9163 4.07703L44.3022 3.74887L42.873 0.403834C42.7676 0.158687 42.5276 0 42.261 0C41.9944 0 41.7544 0.158687 41.649 0.404407L40.2199 3.74887L36.6051 4.07703C36.3395 4.10159 36.1152 4.2811 36.0328 4.53466C35.9503 4.78821 36.0265 5.06632 36.2274 5.24163L38.9593 7.6375L38.1537 11.186C38.0947 11.4469 38.196 11.7166 38.4125 11.8731C38.5289 11.9572 38.665 12 38.8023 12C38.9207 12 39.0381 11.9681 39.1434 11.905L42.261 10.0418L45.3774 11.905C45.6055 12.0422 45.8929 12.0297 46.1089 11.8731C46.3255 11.7162 46.4267 11.4464 46.3678 11.186L45.5622 7.6375L48.2941 5.24211C48.495 5.06632 48.5717 4.78869 48.4892 4.53466Z" fill="#FFC107"/>
<path d="M66.4892 4.53466C66.4073 4.2811 66.1824 4.10101 65.9163 4.07703L62.3022 3.74887L60.873 0.403834C60.7676 0.158687 60.5276 0 60.261 0C59.9944 0 59.7544 0.158687 59.649 0.404407L58.2199 3.74887L54.6051 4.07703C54.3395 4.10159 54.1152 4.2811 54.0328 4.53466C53.9503 4.78821 54.0265 5.06632 54.2274 5.24163L56.9593 7.6375L56.1537 11.186C56.0947 11.4469 56.196 11.7166 56.4125 11.8731C56.5289 11.9572 56.665 12 56.8023 12C56.9207 12 57.0381 11.9681 57.1434 11.905L60.261 10.0418L63.3774 11.905C63.6055 12.0422 63.8929 12.0297 64.1089 11.8731C64.3255 11.7162 64.4267 11.4464 64.3678 11.186L63.5622 7.6375L66.2941 5.24211C66.495 5.06632 66.5717 4.78869 66.4892 4.53466Z" fill="#FFC107"/>
<path d="M84.4892 4.53466C84.4073 4.2811 84.1824 4.10101 83.9163 4.07703L80.3022 3.74887L78.873 0.403834C78.7676 0.158687 78.5276 0 78.261 0C77.9944 0 77.7544 0.158687 77.649 0.404407L76.2199 3.74887L72.6051 4.07703C72.3395 4.10159 72.1152 4.2811 72.0328 4.53466C71.9503 4.78821 72.0265 5.06632 72.2274 5.24163L74.9593 7.6375L74.1537 11.186C74.0947 11.4469 74.196 11.7166 74.4125 11.8731C74.5289 11.9572 74.665 12 74.8023 12C74.9207 12 75.0381 11.9681 75.1434 11.905L78.261 10.0418L81.3774 11.905C81.6055 12.0422 81.8929 12.0297 82.1089 11.8731C82.3255 11.7162 82.4267 11.4464 82.3678 11.186L81.5622 7.6375L84.2941 5.24211C84.495 5.06632 84.5717 4.78869 84.4892 4.53466Z" fill="#DADBDC"/>
</svg>
